<svg width="963" height="162" viewBox="0 0 963 162" fill="none" xmlns="http://www.w3.org/2000/svg">
<path d="M25.65 35.4V56.7H60V76.5H25.65V99.6H64.5V120.15H-2.64496e-06V14.85H64.5V35.4H25.65ZM115.202 121.35C107.902 121.35 101.402 120.1 95.7023 117.6C90.0023 115.1 85.5023 111.7 82.2023 107.4C78.9023 103 77.0523 98.1 76.6523 92.7H102.002C102.302 95.6 103.652 97.95 106.052 99.75C108.452 101.55 111.402 102.45 114.902 102.45C118.102 102.45 120.552 101.85 122.252 100.65C124.052 99.35 124.952 97.7 124.952 95.7C124.952 93.3 123.702 91.55 121.202 90.45C118.702 89.25 114.652 87.95 109.052 86.55C103.052 85.15 98.0523 83.7 94.0523 82.2C90.0523 80.6 86.6023 78.15 83.7023 74.85C80.8023 71.45 79.3523 66.9 79.3523 61.2C79.3523 56.4 80.6523 52.05 83.2523 48.15C85.9523 44.15 89.8523 41 94.9523 38.7C100.152 36.4 106.302 35.25 113.402 35.25C123.902 35.25 132.152 37.85 138.152 43.05C144.252 48.25 147.752 55.15 148.652 63.75H124.952C124.552 60.85 123.252 58.55 121.052 56.85C118.952 55.15 116.152 54.3 112.652 54.3C109.652 54.3 107.352 54.9 105.752 56.1C104.152 57.2 103.352 58.75 103.352 60.75C103.352 63.15 104.602 64.95 107.102 66.15C109.702 67.35 113.702 68.55 119.102 69.75C125.302 71.35 130.352 72.95 134.252 74.55C138.152 76.05 141.552 78.55 144.452 82.05C147.452 85.45 149.002 90.05 149.102 95.85C149.102 100.75 147.702 105.15 144.902 109.05C142.202 112.85 138.252 115.85 133.052 118.05C127.952 120.25 122.002 121.35 115.202 121.35ZM271.595 35.55C281.995 35.55 290.245 38.7 296.345 45C302.545 51.3 305.645 60.05 305.645 71.25V120.15H280.145V74.7C280.145 69.3 278.695 65.15 275.795 62.25C272.995 59.25 269.095 57.75 264.095 57.75C259.095 57.75 255.145 59.25 252.245 62.25C249.445 65.15 248.045 69.3 248.045 74.7V120.15H222.545V74.7C222.545 69.3 221.095 65.15 218.195 62.25C215.395 59.25 211.495 57.75 206.495 57.75C201.495 57.75 197.545 59.25 194.645 62.25C191.845 65.15 190.445 69.3 190.445 74.7V120.15H164.795V36.45H190.445V46.95C193.045 43.45 196.445 40.7 200.645 38.7C204.845 36.6 209.595 35.55 214.895 35.55C221.195 35.55 226.795 36.9 231.695 39.6C236.695 42.3 240.595 46.15 243.395 51.15C246.295 46.55 250.245 42.8 255.245 39.9C260.245 37 265.695 35.55 271.595 35.55ZM402.484 76.95C402.484 79.35 402.334 81.85 402.034 84.45H343.984C344.384 89.65 346.034 93.65 348.934 96.45C351.934 99.15 355.584 100.5 359.884 100.5C366.284 100.5 370.734 97.8 373.234 92.4H400.534C399.134 97.9 396.584 102.85 392.884 107.25C389.284 111.65 384.734 115.1 379.234 117.6C373.734 120.1 367.584 121.35 360.784 121.35C352.584 121.35 345.284 119.6 338.884 116.1C332.484 112.6 327.484 107.6 323.884 101.1C320.284 94.6 318.484 87 318.484 78.3C318.484 69.6 320.234 62 323.734 55.5C327.334 49 332.334 44 338.734 40.5C345.134 37 352.484 35.25 360.784 35.25C368.884 35.25 376.084 36.95 382.384 40.35C388.684 43.75 393.584 48.6 397.084 54.9C400.684 61.2 402.484 68.55 402.484 76.95ZM376.234 70.2C376.234 65.8 374.734 62.3 371.734 59.7C368.734 57.1 364.984 55.8 360.484 55.8C356.184 55.8 352.534 57.05 349.534 59.55C346.634 62.05 344.834 65.6 344.134 70.2H376.234ZM487.253 14.85C498.353 14.85 508.053 17.05 516.353 21.45C524.653 25.85 531.053 32.05 535.553 40.05C540.153 47.95 542.453 57.1 542.453 67.5C542.453 77.8 540.153 86.95 535.553 94.95C531.053 102.95 524.603 109.15 516.203 113.55C507.903 117.95 498.253 120.15 487.253 120.15H447.803V14.85H487.253ZM485.603 97.95C495.303 97.95 502.853 95.3 508.253 90C513.653 84.7 516.353 77.2 516.353 67.5C516.353 57.8 513.653 50.25 508.253 44.85C502.853 39.45 495.303 36.75 485.603 36.75H473.453V97.95H485.603ZM635.687 76.95C635.687 79.35 635.537 81.85 635.237 84.45H577.187C577.587 89.65 579.237 93.65 582.137 96.45C585.137 99.15 588.787 100.5 593.087 100.5C599.487 100.5 603.937 97.8 606.437 92.4H633.737C632.337 97.9 629.787 102.85 626.087 107.25C622.487 111.65 617.937 115.1 612.437 117.6C606.937 120.1 600.787 121.35 593.987 121.35C585.787 121.35 578.487 119.6 572.087 116.1C565.687 112.6 560.687 107.6 557.087 101.1C553.487 94.6 551.687 87 551.687 78.3C551.687 69.6 553.437 62 556.937 55.5C560.537 49 565.537 44 571.937 40.5C578.337 37 585.687 35.25 593.987 35.25C602.087 35.25 609.287 36.95 615.587 40.35C621.887 43.75 626.787 48.6 630.287 54.9C633.887 61.2 635.687 68.55 635.687 76.95ZM609.437 70.2C609.437 65.8 607.937 62.3 604.937 59.7C601.937 57.1 598.187 55.8 593.687 55.8C589.387 55.8 585.737 57.05 582.737 59.55C579.837 62.05 578.037 65.6 577.337 70.2H609.437ZM683.269 121.35C675.969 121.35 669.469 120.1 663.769 117.6C658.069 115.1 653.569 111.7 650.269 107.4C646.969 103 645.119 98.1 644.719 92.7H670.069C670.369 95.6 671.719 97.95 674.119 99.75C676.519 101.55 679.469 102.45 682.969 102.45C686.169 102.45 688.619 101.85 690.319 100.65C692.119 99.35 693.019 97.7 693.019 95.7C693.019 93.3 691.769 91.55 689.269 90.45C686.769 89.25 682.719 87.95 677.119 86.55C671.119 85.15 666.119 83.7 662.119 82.2C658.119 80.6 654.669 78.15 651.769 74.85C648.869 71.45 647.419 66.9 647.419 61.2C647.419 56.4 648.719 52.05 651.319 48.15C654.019 44.15 657.919 41 663.019 38.7C668.219 36.4 674.369 35.25 681.469 35.25C691.969 35.25 700.219 37.85 706.219 43.05C712.319 48.25 715.819 55.15 716.719 63.75H693.019C692.619 60.85 691.319 58.55 689.119 56.85C687.019 55.15 684.219 54.3 680.719 54.3C677.719 54.3 675.419 54.9 673.819 56.1C672.219 57.2 671.419 58.75 671.419 60.75C671.419 63.15 672.669 64.95 675.169 66.15C677.769 67.35 681.769 68.55 687.169 69.75C693.369 71.35 698.419 72.95 702.319 74.55C706.219 76.05 709.619 78.55 712.519 82.05C715.519 85.45 717.069 90.05 717.169 95.85C717.169 100.75 715.769 105.15 712.969 109.05C710.269 112.85 706.319 115.85 701.119 118.05C696.019 120.25 690.069 121.35 683.269 121.35ZM745.761 27.75C741.261 27.75 737.561 26.45 734.661 23.85C731.861 21.15 730.461 17.85 730.461 13.95C730.461 9.95001 731.861 6.65 734.661 4.05C737.561 1.35 741.261 3.57628e-07 745.761 3.57628e-07C750.161 3.57628e-07 753.761 1.35 756.561 4.05C759.461 6.65 760.911 9.95001 760.911 13.95C760.911 17.85 759.461 21.15 756.561 23.85C753.761 26.45 750.161 27.75 745.761 27.75ZM758.511 36.45V120.15H732.861V36.45H758.511ZM808.9 35.25C814.8 35.25 819.95 36.45 824.35 38.85C828.85 41.25 832.3 44.4 834.7 48.3V36.45H860.35V120C860.35 127.7 858.8 134.65 855.7 140.85C852.7 147.15 848.05 152.15 841.75 155.85C835.55 159.55 827.8 161.4 818.5 161.4C806.1 161.4 796.05 158.45 788.35 152.55C780.65 146.75 776.25 138.85 775.15 128.85H800.5C801.3 132.05 803.2 134.55 806.2 136.35C809.2 138.25 812.9 139.2 817.3 139.2C822.6 139.2 826.8 137.65 829.9 134.55C833.1 131.55 834.7 126.7 834.7 120V108.15C832.2 112.05 828.75 115.25 824.35 117.75C819.95 120.15 814.8 121.35 808.9 121.35C802 121.35 795.75 119.6 790.15 116.1C784.55 112.5 780.1 107.45 776.8 100.95C773.6 94.35 772 86.75 772 78.15C772 69.55 773.6 62 776.8 55.5C780.1 49 784.55 44 790.15 40.5C795.75 37 802 35.25 808.9 35.25ZM834.7 78.3C834.7 71.9 832.9 66.85 829.3 63.15C825.8 59.45 821.5 57.6 816.4 57.6C811.3 57.6 806.95 59.45 803.35 63.15C799.85 66.75 798.1 71.75 798.1 78.15C798.1 84.55 799.85 89.65 803.35 93.45C806.95 97.15 811.3 99 816.4 99C821.5 99 825.8 97.15 829.3 93.45C832.9 89.75 834.7 84.7 834.7 78.3ZM929.906 35.55C939.706 35.55 947.506 38.75 953.306 45.15C959.206 51.45 962.156 60.15 962.156 71.25V120.15H936.656V74.7C936.656 69.1 935.206 64.75 932.306 61.65C929.406 58.55 925.506 57 920.606 57C915.706 57 911.806 58.55 908.906 61.65C906.006 64.75 904.556 69.1 904.556 74.7V120.15H878.906V36.45H904.556V47.55C907.156 43.85 910.656 40.95 915.056 38.85C919.456 36.65 924.406 35.55 929.906 35.55Z" fill="#1E1E1E"/>
</svg>
