<svg width="220" height="58" viewBox="0 0 220 58" fill="none" xmlns="http://www.w3.org/2000/svg">
<path d="M45.0939 17.3438H42.9377L41.2502 12.0938C41.1877 11.9062 41.1252 11.6875 41.0627 11.4375C39.1877 5.4375 35.7814 2.4375 30.8439 2.4375H17.5314V25.875H36.3752V28.5938H17.5314V53.8125H30.8439C31.5939 53.8125 32.3127 53.75 33.0002 53.625C36.8127 52.875 39.5627 49.7188 41.2502 44.1562L42.9377 38.9062H45.0939L44.7189 56.25H0.000198364V53.8125H7.5002V2.4375H0.000198364V0H44.7189L45.0939 17.3438ZM72.394 54.6562C76.644 54.6562 79.3627 53.3125 80.5502 50.625C80.9252 49.8125 81.1127 48.9688 81.1127 48.0938C81.1127 45.2812 79.144 42.875 75.2065 40.875C74.394 40.4375 73.0502 39.8125 71.1752 39C66.2377 36.875 62.9565 34.9062 61.3315 33.0938C59.5815 31.0938 58.7065 28.75 58.7065 26.0625C58.7065 21.375 61.269 18.125 66.394 16.3125C68.7065 15.5 71.2377 15.0938 73.9877 15.0938C78.4877 15.0938 82.1752 15.9688 85.0502 17.7188C85.0502 15.9062 85.519 14.875 86.4565 14.625C86.769 14.5625 87.1127 14.5312 87.4877 14.5312V26.25H84.8627C84.6127 20.5 81.4565 17.5938 75.394 17.5312C71.019 17.5312 68.3002 18.875 67.2377 21.5625C66.9877 22.25 66.8627 22.9688 66.8627 23.7188C66.8627 26.4062 68.769 28.7188 72.5815 30.6562C73.394 31.0312 74.7065 31.5938 76.519 32.3438C81.519 34.4688 84.8315 36.4375 86.4565 38.25C88.3315 40.375 89.269 42.8438 89.269 45.6562C89.269 50.7812 86.5815 54.25 81.2065 56.0625C79.019 56.8125 76.5815 57.1875 73.894 57.1875C68.9565 57.125 64.7377 56.0625 61.2377 54C61.2377 55.625 60.8315 56.5625 60.019 56.8125C59.644 56.875 59.2065 56.9062 58.7065 56.9062V42.6562H61.6127C61.7377 50.5938 65.3315 54.5938 72.394 54.6562ZM118.444 53.9062C118.819 53.9062 119.131 53.9375 119.381 54C120.319 54.125 120.788 54.875 120.788 56.25H99.8814V53.9062C101.444 53.9062 102.663 53.7812 103.538 53.5312C105.35 53.0312 106.256 51.375 106.256 48.5625V18.5625H99.8814V16.2188H114.694L115.163 24.5625C115.6 23.625 116.1 22.6875 116.663 21.75C119.538 17.3125 123.506 15.0938 128.569 15.0938C129.631 15.0938 130.725 15.2812 131.85 15.6562C135.663 16.9062 138.225 19.9062 139.538 24.6562C139.913 23.7812 140.35 22.9375 140.85 22.125C143.725 17.4375 147.756 15.0938 152.944 15.0938C155.069 15.0938 157.069 15.625 158.944 16.6875C163.131 19.25 165.225 23.7188 165.225 30.0938V53.9062H169.35C169.788 53.9062 170.163 53.9375 170.475 54C171.288 54.125 171.694 54.875 171.694 56.25H150.694V53.9062C152.381 53.9062 153.6 53.75 154.35 53.4375C155.6 52.875 156.225 51.25 156.225 48.5625V29.0625C156.225 27.25 155.944 25.5938 155.381 24.0938C154.194 20.9062 152.131 19.3125 149.194 19.3125C148.194 19.3125 147.194 19.5625 146.194 20.0625C143.006 21.75 141.006 24.9375 140.194 29.625V30.2812V53.9062H143.381C143.819 53.9062 144.194 53.9375 144.506 54C145.319 54.125 145.725 54.875 145.725 56.25H125.663V53.9062C127.288 53.9062 128.506 53.75 129.319 53.4375C130.631 52.875 131.288 51.25 131.288 48.5625V29.0625C131.288 27.1875 131.038 25.5312 130.538 24.0938C129.35 20.9688 127.381 19.4062 124.631 19.4062C123.444 19.4062 122.225 19.7812 120.975 20.5312C117.663 22.6562 115.788 26.25 115.35 31.3125L115.256 53.9062H118.444ZM201.994 17.4375C200.806 17.4375 199.713 17.6562 198.713 18.0938C194.338 20.0312 192.025 25 191.775 33L200.119 33.1875C202.744 33.3125 204.775 33.1875 206.213 32.8125C208.775 32.125 210.056 30.25 210.056 27.1875C210.056 25.9375 209.9 24.7188 209.588 23.5312C208.525 19.4688 205.994 17.4375 201.994 17.4375ZM218.775 46.9688C218.4 47.8438 217.963 48.7188 217.463 49.5938C214.338 54.6562 209.244 57.1875 202.181 57.1875C197.994 57.1875 194.244 56.1875 190.931 54.1875C184.869 50.5625 181.838 44.5938 181.838 36.2812C181.838 31.4688 182.994 27.25 185.306 23.625C188.931 17.9375 194.463 15.0938 201.9 15.0938C205.838 15.0938 209.369 15.9062 212.494 17.5312C217.181 19.9688 219.525 23.5312 219.525 28.2188C219.525 30.0312 219.025 31.5312 218.025 32.7188C215.9 34.9688 210.556 36 201.994 35.8125L191.775 35.625C191.775 35.6875 191.775 35.75 191.775 35.8125C192.088 48.3125 196.15 54.5625 203.963 54.5625C204.963 54.5625 205.963 54.4375 206.963 54.1875C211.275 53.1875 214.463 50.5312 216.525 46.2188L218.775 46.9688Z" fill="#323232"/>
</svg>
